<svg xmlns="http://www.w3.org/2000/svg" version="1.1" xmlns:xlink="http://www.w3.org/1999/xlink" xmlns:svgjs="http://svgjs.dev/svgjs" width="1000" height="750" viewBox="0 0 1000 750"><rect width="1000" height="750" fill="#ffffff"></rect><g transform="matrix(0.834,0,0,0.834,82.49454545454546,104.7292274258113)"><svg viewBox="0 0 396 251" data-background-color="#051726" preserveAspectRatio="xMidYMid meet" height="633" width="1000" xmlns="http://www.w3.org/2000/svg" xmlns:xlink="http://www.w3.org/1999/xlink"><defs></defs><g id="tight-bounds" transform="matrix(1,0,0,1,0.2400000000000091,3.838910935432324)"><svg viewBox="0 0 395.52 247.2" height="247.2" width="395.52"><g><svg></svg></g><g><svg viewBox="0 0 395.52 247.2" height="247.2" width="395.52"><g transform="matrix(2.922111974885307, 0, 0, 2.922111974885307, 88.84337699079384, 1)"><svg xmlns="http://www.w3.org/2000/svg" data-name="Layer 1" viewBox="16.991191864013672 8.035107612609863 74.5465087890625 83.91191101074219" x="0" y="0" height="83.91191101074219" width="74.5465087890625" class="icon-none" data-fill-palette-color="accent" id="none"><g data-name="Shape 108" fill="#81ffd9" data-fill-palette-color="accent"><path class="cls-1" d="M77.2 84.26a5.37 5.37 0 0 1-7.42 5.57c-2.13-0.9-3.43-3-4.61-5Q58.48 73.48 51 62.68a0.9 0.9 0 0 0-1.64-0.17 150.56 150.56 0 0 0-19.47 23.9c-1.38 2.11-2.88 4.38-5.24 5.25C21.09 92.94 16.77 89.74 17 86c0.11-2 1.26-3.77 2.39-5.42A210.36 210.36 0 0 1 41.1 53.8c0.37-0.39 0-1-0.38-1.41C34.62 46 27.46 40.55 22 33.56c-2.3-3-4.34-6.92-2.83-10.36a5.89 5.89 0 0 1 11.11 1c0.55 2.21 2.26 3.91 3.9 5.48L48.56 43.37c0.49 0.47 1.34 0.91 1.73 0.37A167.55 167.55 0 0 1 81.6 10.83a13.45 13.45 0 0 1 4-2.48 4.81 4.81 0 0 1 4.52 0.59c1.55 1.28 1.74 3.69 1 5.56a14.85 14.85 0 0 1-3.68 4.73A303.48 303.48 0 0 0 58.84 51.67c-0.4 0.52-0.8 1.27-0.39 1.78A161.26 161.26 0 0 1 76 80.85 10.42 10.42 0 0 1 77.2 84.26Z" fill="#000000" data-fill-palette-color="accent"></path></g></svg></g><rect width="348.05760000000004" height="124.75607638810747" fill="#ffffff" y="61.22196180594626" x="23.731199999999973" data-fill-palette-color="quaternary"></rect><g transform="matrix(1,0,0,1,39.55199999999999,70.07746995123581)"><svg viewBox="0 0 316.416 107.04506009752836" height="107.04506009752836" width="316.416"><g><svg viewBox="0 0 316.416 107.04506009752836" height="107.04506009752836" width="316.416"><g><svg viewBox="0 0 316.416 107.04506009752836" height="107.04506009752836" width="316.416"><g><svg viewBox="0 0 316.416 107.04506009752836" height="107.04506009752836" width="316.416"><g><svg viewBox="0 0 316.416 107.04506009752836" height="107.04506009752836" width="316.416"><g><svg viewBox="0 0 316.416 60.685755223880605" height="60.685755223880605" width="316.416"><g transform="matrix(1,0,0,1,0,0)"><svg width="316.416" viewBox="1.399999976158142 -40.349998474121094 267.9700012207031 51.39999771118164" height="60.685755223880605" data-palette-color="#ffffff"><path d="M14.65-35.5Q17.4-35.5 19.63-34.55 21.85-33.6 23.8-31.7L23.8-31.7 20.15-27.4Q18.9-28.5 17.73-29.08 16.55-29.65 15.2-29.65L15.2-29.65Q12.45-29.65 11-26.83 9.55-24 9.55-17.4L9.55-17.4Q9.55-10.95 11.03-8.1 12.5-5.25 15.25-5.25L15.25-5.25Q16.75-5.25 17.85-5.85 18.95-6.45 20.55-7.75L20.55-7.75 24.1-3.55Q22.3-1.6 19.9-0.38 17.5 0.85 14.55 0.85L14.55 0.85Q8.55 0.85 4.98-3.75 1.4-8.35 1.4-17.4L1.4-17.4Q1.4-23.35 3.08-27.4 4.75-31.45 7.75-33.48 10.75-35.5 14.65-35.5L14.65-35.5ZM39.3-27.3Q40.35-27.3 41.4-26.9L41.4-26.9 40.15-19.65Q39.25-19.95 38.3-19.95L38.3-19.95Q36.45-19.95 35.52-18.53 34.6-17.1 34-14.25L34-14.25 34 0 26.45 0 26.45-26.55 33-26.55 33.55-22.2Q35.45-27.3 39.3-27.3L39.3-27.3ZM63.5-26.55L56.6 0.05Q54 10.3 43.5 11.05L43.5 11.05 42.7 5.85Q45.85 5.3 47.47 4.03 49.1 2.75 50 0L50 0 47.2 0 40.85-26.55 48.45-26.55 51.95-4.85 56.05-26.55 63.5-26.55ZM78.84-27.4Q82.74-27.4 84.79-23.78 86.84-20.15 86.84-13.35L86.84-13.35Q86.84-9.05 85.77-5.83 84.69-2.6 82.74-0.88 80.79 0.85 78.14 0.85L78.14 0.85Q75.04 0.85 72.99-1.8L72.99-1.8 72.99 10.25 65.44 11.05 65.44-26.55 72.14-26.55 72.44-23.65Q73.74-25.6 75.29-26.5 76.84-27.4 78.84-27.4L78.84-27.4ZM75.94-4.75Q77.44-4.75 78.27-6.7 79.09-8.65 79.09-13.25L79.09-13.25Q79.09-18.2 78.39-20.03 77.69-21.85 76.24-21.85L76.24-21.85Q74.44-21.85 72.99-19.05L72.99-19.05 72.99-6.8Q74.24-4.75 75.94-4.75L75.94-4.75ZM102.44-5.85L104.94-1.25Q103.69-0.2 102.04 0.33 100.39 0.85 98.69 0.85L98.69 0.85Q94.84 0.85 92.89-1.35 90.94-3.55 90.94-7.25L90.94-7.25 90.94-21.25 88.19-21.25 88.19-26.55 90.94-26.55 90.94-32.35 98.49-33.2 98.49-26.55 103.44-26.55 102.64-21.25 98.49-21.25 98.49-7.3Q98.49-5.15 100.29-5.15L100.29-5.15Q101.29-5.15 102.44-5.85L102.44-5.85ZM116.74-27.4Q121.94-27.4 124.86-23.85 127.79-20.3 127.79-13.25L127.79-13.25Q127.79-6.5 124.86-2.83 121.94 0.85 116.74 0.85L116.74 0.85Q111.54 0.85 108.61-2.73 105.69-6.3 105.69-13.3L105.69-13.3Q105.69-20.15 108.61-23.78 111.54-27.4 116.74-27.4L116.74-27.4ZM116.74-21.8Q114.99-21.8 114.21-19.88 113.44-17.95 113.44-13.3L113.44-13.3Q113.44-8.5 114.21-6.6 114.99-4.7 116.74-4.7L116.74-4.7Q118.49-4.7 119.26-6.63 120.04-8.55 120.04-13.25L120.04-13.25Q120.04-18 119.26-19.9 118.49-21.8 116.74-21.8L116.74-21.8ZM150.38-35.5Q153.63-35.5 156.11-34.4 158.58-33.3 160.63-31.1L160.63-31.1 157.18-27Q154.18-29.75 151.23-29.75L151.23-29.75Q149.53-29.75 148.58-28.75 147.63-27.75 147.63-26.1L147.63-26.1Q147.63-24.5 148.73-23.48 149.83-22.45 152.98-21.1L152.98-21.1Q155.88-19.8 157.68-18.43 159.48-17.05 160.41-15.05 161.33-13.05 161.33-10.1L161.33-10.1Q161.33-6.95 159.91-4.45 158.48-1.95 155.83-0.55 153.18 0.85 149.63 0.85L149.63 0.85Q145.93 0.85 143.23-0.45 140.53-1.75 138.38-4.05L138.38-4.05 142.13-8.2Q143.93-6.6 145.56-5.78 147.18-4.95 149.03-4.95L149.03-4.95Q151.08-4.95 152.13-6.18 153.18-7.4 153.18-9.5L153.18-9.5Q153.18-11.4 152.13-12.63 151.08-13.85 148.33-14.95L148.33-14.95Q143.53-16.95 141.53-19.38 139.53-21.8 139.53-25.5L139.53-25.5Q139.53-28.45 140.93-30.73 142.33-33 144.81-34.25 147.28-35.5 150.38-35.5L150.38-35.5ZM177.83-27.4Q181.73-27.4 183.78-23.78 185.83-20.15 185.83-13.35L185.83-13.35Q185.83-9.05 184.76-5.83 183.68-2.6 181.73-0.88 179.78 0.85 177.13 0.85L177.13 0.85Q174.03 0.85 171.98-1.8L171.98-1.8 171.98 10.25 164.43 11.05 164.43-26.55 171.13-26.55 171.43-23.65Q172.73-25.6 174.28-26.5 175.83-27.4 177.83-27.4L177.83-27.4ZM174.93-4.75Q176.43-4.75 177.26-6.7 178.08-8.65 178.08-13.25L178.08-13.25Q178.08-18.2 177.38-20.03 176.68-21.85 175.23-21.85L175.23-21.85Q173.43-21.85 171.98-19.05L171.98-19.05 171.98-6.8Q173.23-4.75 174.93-4.75L174.93-4.75ZM202.98-27.4Q205.83-27.4 207.45-25.35 209.08-23.3 209.08-19.85L209.08-19.85 209.08 0 201.53 0 201.53-19.05Q201.53-21.65 200.08-21.65L200.08-21.65Q198.63-21.65 196.93-18.45L196.93-18.45 196.93 0 189.38 0 189.38-37.1 196.93-37.9 196.93-23.75Q198.18-25.65 199.63-26.53 201.08-27.4 202.98-27.4L202.98-27.4ZM226.98-27.4Q229.83-27.4 231.45-25.35 233.08-23.3 233.08-19.85L233.08-19.85 233.08 0 225.53 0 225.53-19.05Q225.53-21.65 224.08-21.65L224.08-21.65Q222.63-21.65 220.93-18.45L220.93-18.45 220.93 0 213.38 0 213.38-26.55 219.93-26.55 220.48-23.4Q221.78-25.4 223.33-26.4 224.88-27.4 226.98-27.4L226.98-27.4ZM237.37-26.55L244.92-26.55 244.92 0 237.37 0 237.37-26.55ZM241.07-40.35Q243.02-40.35 244.2-39.13 245.37-37.9 245.37-36L245.37-36Q245.37-34.15 244.17-32.93 242.97-31.7 241.07-31.7L241.07-31.7Q239.17-31.7 237.97-32.93 236.77-34.15 236.77-36L236.77-36Q236.77-37.9 237.97-39.13 239.17-40.35 241.07-40.35L241.07-40.35ZM268.22-26.55L262.42-14.2 269.37 0 261.47 0 257.82-10.1 254.37 0 246.62 0 253.47-13.95 247.22-26.55 255.02-26.55 257.92-17.85 260.67-26.55 268.22-26.55Z" opacity="1" transform="matrix(1,0,0,1,0,0)" fill="#000000" class="undefined-text-0" data-fill-palette-color="primary" id="text-0"></path></svg></g></svg></g><g transform="matrix(1,0,0,1,0,69.54126336917015)"><svg viewBox="0 0 316.416 37.50379672835821" height="37.50379672835821" width="316.416"><g transform="matrix(1,0,0,1,0,0)"><svg width="316.416" viewBox="2.740000009536743 -40.22999954223633 341.9000244140625 40.529998779296875" height="37.50379672835821" data-palette-color="#81ffd9"><path d="M7.8-1.68L7.8 0.23Q5.08 0.03 3.99-1.18 2.9-2.38 2.85-4.9L2.85-4.9Q2.78-10.3 2.75-15.15 2.73-20 2.75-24.85 2.78-29.7 2.85-35.1L2.85-35.1Q2.9-37.63 4-38.84 5.1-40.05 7.8-40.23L7.8-40.23 7.8-38.33Q6.05-38.2 5.48-37.49 4.9-36.77 4.85-35.1L4.85-35.1Q4.78-30.65 4.74-27.01 4.7-23.38 4.7-20 4.7-16.63 4.74-12.99 4.78-9.35 4.85-4.9L4.85-4.9Q4.9-3.23 5.46-2.51 6.03-1.8 7.8-1.68L7.8-1.68ZM14.95-26.75L12.95-26.75Q13.03-29.13 13.03-30.94 13.03-32.75 12.95-35.1L12.95-35.1Q12.9-36.77 12.33-37.48 11.75-38.18 10.05-38.3L10.05-38.3 10.05-40.2Q12.7-40.03 13.79-38.83 14.88-37.63 14.95-35.1L14.95-35.1Q15.03-32.75 15.03-30.94 15.03-29.13 14.95-26.75L14.95-26.75ZM10.05 0.23L10.05 0.23 10.05-1.68Q11.93-1.8 12.53-2.51 13.13-3.23 13.15-4.9L13.15-4.9Q13.2-7.3 13.2-9.13 13.2-10.95 13.15-13.35L13.15-13.35 8.5-13.35 8.5-15.35 15.15-15.35Q15.2-11.75 15.2-9.47 15.2-7.2 15.15-4.9L15.15-4.9Q15.13-2.38 13.98-1.18 12.83 0.03 10.05 0.23ZM39.81-27.88L39.81-27.88 39.81-29.55Q40.78-30.05 42.46-30.05L42.46-30.05Q42.81-30.05 43.17-30.04 43.53-30.03 44.06-29.95L44.06-29.95 44.06-28.3 42.46-28.3Q40.81-28.3 39.81-27.88ZM37.51 0L35.46 0 35.46-30 37.51-30 37.51 0ZM61.49-5.05L61.49-5.05Q61.39-7.53 61.35-10.94 61.31-14.35 61.34-18.01 61.36-21.68 61.49-24.9L61.49-24.9Q61.59-27.5 62.64-28.78 63.69-30.05 66.14-30.25L66.14-30.25 66.14-28.53Q64.74-28.35 64.14-27.55 63.54-26.75 63.49-25.05L63.49-25.05Q63.31-20.55 63.29-15.24 63.26-9.93 63.49-4.9L63.49-4.9Q63.54-3.25 64.14-2.46 64.74-1.68 66.14-1.48L66.14-1.48 66.14 0.25Q63.69 0.05 62.64-1.21 61.59-2.48 61.49-5.05ZM68.44 0.25L68.44 0.25 68.44-1.48Q69.91-1.68 70.47-2.48 71.04-3.28 71.09-4.8L71.09-4.8Q71.29-9.38 71.3-14.73 71.31-20.08 71.09-25.2L71.09-25.2Q71.04-26.83 70.44-27.59 69.84-28.35 68.44-28.53L68.44-28.53 68.44-30.25Q70.94-30.05 71.96-28.78 72.99-27.5 73.09-24.9L73.09-24.9Q73.19-22.05 73.24-18.69 73.29-15.33 73.25-11.83 73.21-8.33 73.09-5.05L73.09-5.05Q72.99-2.48 71.94-1.21 70.89 0.05 68.44 0.25ZM99.04 0L95.14 0 91.99-30 94.04-30 95.54-14.8 96.69-1.7 99.22-1.7 99.04 0ZM109.34-3.7L107.74-3.7 108.74-14.8 110.24-30 112.24-30 109.34-3.7ZM109.04 0L105.19 0 104.04-11.45 102.49-28.1 101.74-28.1 100.14-11.45 99.34-3.7 97.69-3.7 98.64-14.8 100.19-29.8 104.09-29.8 105.59-14.8 106.74-1.7 109.22-1.7 109.04 0ZM162.06 0L158.16 0 155.01-30 157.06-30 158.56-14.8 159.71-1.7 162.23-1.7 162.06 0ZM172.36-3.7L170.76-3.7 171.76-14.8 173.26-30 175.26-30 172.36-3.7ZM172.06 0L168.21 0 167.06-11.45 165.51-28.1 164.76-28.1 163.16-11.45 162.36-3.7 160.71-3.7 161.66-14.8 163.21-29.8 167.11-29.8 168.61-14.8 169.76-1.7 172.23-1.7 172.06 0ZM197.74-36.9L193.74-36.9 193.74-40 197.74-40 197.74-36.9ZM196.84 0L194.84 0 194.84-30 196.84-30 196.84 0ZM218.09-28.3L216.09-28.3 216.09-30 218.09-30 218.09-38.5 220.09-38.5 220.09-4.75Q220.09-2.8 220.67-2.1 221.24-1.4 223.29-1.4L223.29-1.4Q224.09-1.4 224.58-1.45 225.07-1.5 225.74-1.6L225.74-1.6 225.74 0.05Q225.14 0.15 224.51 0.23 223.87 0.3 223.19 0.3L223.19 0.3Q220.27 0.3 219.18-0.86 218.09-2.02 218.09-4.95L218.09-4.95 218.09-28.3ZM225.14-28.3L221.64-28.3 221.64-30 225.14-30 225.14-28.3ZM246.77 0L244.72 0 244.72-40 246.77-40 246.77 0ZM256.37 0L254.37 0 254.37-25.25Q254.37-27.05 253.66-27.83 252.95-28.6 251.32-28.6L251.32-28.6Q250-28.6 249.02-28.18L249.02-28.18 249.02-29.63Q250.07-30.3 251.77-30.3L251.77-30.3Q254.22-30.3 255.3-29.04 256.37-27.78 256.37-25.15L256.37-25.15 256.37 0ZM301.74-4.9L301.74-4.9 301.74-30 303.79-30 303.79-4.75Q303.79-2.95 304.49-2.18 305.19-1.4 306.79-1.4L306.79-1.4Q308.09-1.4 309.09-1.95L309.09-1.95 309.09-0.45Q307.94 0.3 306.39 0.3L306.39 0.3Q303.96 0.3 302.85-0.94 301.74-2.18 301.74-4.9ZM313.39 0L311.39 0 311.39-30 313.39-30 313.39 0ZM340.04 0.25L340.04 0.25 340.04-1.48Q341.39-1.65 341.99-2.4 342.59-3.15 342.64-4.75L342.64-4.75Q342.72-7.15 342.64-9.1L342.64-9.1Q342.57-11.4 342.09-12.41 341.62-13.43 339.99-13.95L339.99-13.95 337.79-14.65Q336.07-15.2 335.18-15.99 334.29-16.78 333.96-18.11 333.62-19.45 333.54-21.65L333.54-21.65Q333.52-22.83 333.52-23.54 333.52-24.25 333.54-25.1L333.54-25.1Q333.64-27.6 334.59-28.83 335.54-30.05 337.89-30.25L337.89-30.25 337.89-28.53Q336.64-28.35 336.12-27.6 335.59-26.85 335.54-25.2L335.54-25.2Q335.52-24.53 335.49-23.59 335.47-22.65 335.49-21.9L335.49-21.9Q335.57-19.73 335.93-18.38 336.29-17.03 338.09-16.5L338.09-16.5 340.29-15.85Q342.59-15.18 343.62-13.65 344.64-12.13 344.64-9.05L344.64-9.05Q344.64-7.83 344.63-6.98 344.62-6.13 344.54-4.85L344.54-4.85Q344.42-2.38 343.46-1.16 342.49 0.05 340.04 0.25ZM344.39-20.2L342.49-20.2Q342.57-21.63 342.56-22.98 342.54-24.33 342.54-25.25L342.54-25.25Q342.54-26.85 342.03-27.6 341.52-28.35 340.19-28.53L340.19-28.53 340.19-30.25Q342.49-30.05 343.48-28.83 344.47-27.6 344.49-25L344.49-25Q344.49-24.45 344.51-22.95 344.52-21.45 344.39-20.2L344.39-20.2ZM333.49-4.9L333.49-4.9Q333.47-6.1 333.47-7.19 333.47-8.28 333.54-9.85L333.54-9.85 335.44-9.85Q335.37-8.35 335.38-7.04 335.39-5.73 335.39-4.75L335.39-4.75Q335.39-3.15 335.92-2.4 336.44-1.65 337.74-1.48L337.74-1.48 337.74 0.25Q335.39 0.05 334.48-1.18 333.57-2.4 333.49-4.9Z" opacity="1" transform="matrix(1,0,0,1,0,0)" fill="#000000" class="undefined-text-1" data-fill-palette-color="secondary" id="text-1"></path></svg></g></svg></g></svg></g></svg></g><g></g></svg></g></svg></g></svg></g></svg></g></svg><rect width="395.52" height="247.2" fill="none" stroke="none" visibility="hidden"></rect></g></svg></g></svg>